<svg width="60" height="60" viewBox="0 0 60 60" fill="none" xmlns="http://www.w3.org/2000/svg">
<path d="M20.8947 50.405C17.9297 47.73 17.0647 42.115 18.2997 38.045C20.4397 40.61 23.4072 41.425 26.4797 41.8825C31.2222 42.59 35.8797 42.325 40.2847 40.1875C40.7897 39.9425 41.2547 39.615 41.8047 39.2875C42.2197 40.47 42.3272 41.6625 42.1822 42.88C41.8322 45.8425 40.3372 48.13 37.9622 49.865C37.0122 50.5575 36.0072 51.1775 35.0247 51.8325C32.0122 53.8425 31.1972 56.2 32.3297 59.63L32.4397 60C30.9982 59.3814 29.7736 58.3475 28.9222 57.03C28.0364 55.6823 27.5637 54.1052 27.5622 52.4925C27.5522 51.6925 27.5522 50.8875 27.4422 50.0975C27.1772 48.175 26.2622 47.315 24.5397 47.265C22.7722 47.215 21.3722 48.2925 21.0022 49.99C20.9722 50.1225 20.9322 50.25 20.8897 50.4025H20.8947V50.405ZM5.99219 39.2925C5.99219 39.2925 14.0922 35.355 22.2172 35.355L28.3447 16.4425C28.5747 15.5275 29.2447 14.9075 29.9997 14.9075C30.7547 14.9075 31.4247 15.5275 31.6547 16.4425L37.7797 35.355C47.4047 35.355 54.0072 39.2925 54.0072 39.2925L40.2197 1.8175C39.8247 0.7125 39.1572 0 38.2572 0H21.7422C20.8422 0 20.2047 0.7125 19.7822 1.8175L5.99219 39.2925Z" fill="#070F68"/>
</svg>
