<svg width="60" height="60" viewBox="0 0 60 60" fill="none" xmlns="http://www.w3.org/2000/svg">
<g clip-path="url(#clip0_108_59)">
<path d="M0 0V50.4C0 52.9461 1.01143 55.3879 2.81177 57.1882C4.61212 58.9886 7.05392 60 9.6 60H50.4C52.9461 60 55.3879 58.9886 57.1882 57.1882C58.9886 55.3879 60 52.9461 60 50.4V9.6C60 7.05392 58.9886 4.61212 57.1882 2.81177C55.3879 1.01143 52.9461 0 50.4 0L0 0ZM35.64 32.7C39.54 32.7 41.34 35.4 41.4 39.3H37.38C37.44 38.58 37.26 37.8 37.02 37.2C36.78 36.72 36.3 36.54 35.64 36.54C34.5 36.54 33.9 37.2 33.9 38.64C33.84 40.08 34.62 40.86 35.82 41.34C37.62 42.06 39.84 43.2 40.62 44.58C41.34 45.66 41.7 47.04 41.7 48.72C41.7 52.74 39.42 55.2 35.46 55.2C31.32 55.2 29.46 52.62 29.4 48.48H33.6C33.6 50.46 34.26 51.42 35.58 51.42C36.24 51.42 36.72 51.24 36.96 50.82C37.44 50.04 37.56 47.88 36.84 47.04C36.06 46.02 34.56 45.54 33.54 45C32.16 44.34 31.14 43.56 30.48 42.66C29.88 41.76 29.58 40.44 29.58 38.82C29.58 35.22 31.92 32.64 35.64 32.7ZM49.14 32.7C53.1 32.7 54.9 35.4 54.96 39.3H50.94C50.94 38.58 50.82 37.8 50.52 37.2C50.28 36.72 49.86 36.54 49.2 36.54C48 36.54 47.4 37.2 47.4 38.64C47.4 40.08 48.12 40.86 49.38 41.34C51.12 42.06 53.4 43.2 54.18 44.58C54.84 45.66 55.2 47.04 55.2 48.72C55.26 52.74 52.98 55.2 49.02 55.2C44.82 55.2 42.96 52.56 42.9 48.48H47.1C47.1 50.34 47.76 51.42 49.08 51.42C49.74 51.42 50.22 51.24 50.46 50.82C51 50.04 51.12 47.88 50.34 47.04C49.62 46.02 48.12 45.54 47.04 45C45.66 44.34 44.64 43.56 44.04 42.66C43.44 41.76 43.14 40.44 43.14 38.82C43.08 35.22 45.42 32.64 49.14 32.7ZM21.5625 32.745C23.34 32.73 25.11 33.24 26.16 34.32C27.24 35.4 27.84 37.14 27.78 39.3H23.34C23.4 38.16 23.1 37.32 22.26 36.9C21.48 36.54 20.34 36.78 20.04 37.5C19.74 38.16 19.56 38.94 19.62 39.66V48.42C19.62 50.28 20.28 51.24 21.54 51.24C21.8065 51.2517 22.0718 51.1976 22.3125 51.0825C22.5532 50.9674 22.7618 50.7948 22.92 50.58C23.34 49.98 23.4 49.2 23.34 48.48H27.78C28.02 52.56 25.32 55.26 21.36 55.2C17.52 55.2 15.12 53.04 15.18 49.02V38.94C15.18 36.9 15.78 35.34 16.92 34.32C18 33.3 19.785 32.76 21.5625 32.745Z" fill="#070F68"/>
</g>
<defs>
<clipPath id="clip0_108_59">
<rect width="60" height="60" fill="white"/>
</clipPath>
</defs>
</svg>
