<svg width="60" height="60" viewBox="0 0 60 60" fill="none" xmlns="http://www.w3.org/2000/svg">
<path d="M39.6301 22.4525H28.1601V0H39.6301C45.8201 0 50.8551 5.035 50.8551 11.225C50.8551 17.415 45.8201 22.4525 39.6301 22.4525ZM31.8376 18.775H39.6301C43.7926 18.775 47.1776 15.3875 47.1776 11.2275C47.1776 7.0675 43.7901 3.68 39.6301 3.68H31.8376V18.775ZM31.8376 22.4525H20.3701C14.1801 22.4525 9.14508 17.4175 9.14508 11.2275C9.14508 5.0375 14.1801 0 20.3701 0H31.8401V22.4525H31.8376ZM20.3701 3.6775C16.2076 3.6775 12.8226 7.065 12.8226 11.225C12.8226 15.385 16.2076 18.775 20.3701 18.775H28.1626V3.6775H20.3701ZM31.8376 41.225H20.3701C14.1801 41.225 9.14508 36.19 9.14508 30C9.14508 23.81 14.1801 18.775 20.3701 18.775H31.8401V41.225H31.8376ZM20.3701 22.4525C16.2076 22.4525 12.8226 25.84 12.8226 30C12.8226 34.16 16.2101 37.5475 20.3701 37.5475H28.1626V22.4525H20.3701ZM20.4301 60C14.2076 60 9.14258 54.965 9.14258 48.775C9.14258 42.585 14.1776 37.55 20.3676 37.55H31.8376V48.6525C31.8376 54.91 26.7201 60 20.4301 60ZM20.3701 41.225C18.3692 41.2276 16.451 42.0237 15.0361 43.4385C13.6213 44.8534 12.8252 46.7716 12.8226 48.7725C12.8226 52.935 16.2351 56.32 20.4326 56.32C24.6951 56.32 28.1651 52.88 28.1651 48.65V41.225H20.3701ZM39.6301 41.225H39.3851C33.1951 41.225 28.1601 36.19 28.1601 30C28.1601 23.81 33.1951 18.775 39.3851 18.775H39.6301C45.8201 18.775 50.8551 23.81 50.8551 30C50.8551 36.19 45.8201 41.225 39.6301 41.225ZM39.3876 22.4525C35.2251 22.4525 31.8401 25.84 31.8401 30C31.8401 34.16 35.2276 37.5475 39.3876 37.5475H39.6326C43.7951 37.5475 47.1801 34.16 47.1801 30C47.1801 25.84 43.7901 22.4525 39.6301 22.4525H39.3876Z" fill="#070F68"/>
</svg>
