<svg width="60" height="60" viewBox="0 0 60 60" fill="none" xmlns="http://www.w3.org/2000/svg">
<path d="M49.3734 9.56948e-06H10.6266C9.23055 -0.00188897 7.84788 0.278727 6.55777 0.825782C5.26766 1.37284 4.09546 2.17558 3.10833 3.18803C2.12119 4.20048 1.33852 5.40273 0.805138 6.72592C0.271759 8.04911 -0.00184175 9.46723 9.33024e-06 10.899V49.101C-0.00184175 50.5328 0.271759 51.9509 0.805138 53.2741C1.33852 54.5973 2.12119 55.7995 3.10833 56.812C4.09546 57.8244 5.26766 58.6272 6.55777 59.1742C7.84788 59.7213 9.23055 60.0019 10.6266 60H49.3734C50.7694 60.0019 52.1521 59.7213 53.4422 59.1742C54.7323 58.6272 55.9045 57.8244 56.8917 56.812C57.8788 55.7995 58.6615 54.5973 59.1949 53.2741C59.7282 51.9509 60.0018 50.5328 60 49.101V10.899C60.0018 9.46723 59.7282 8.04911 59.1949 6.72592C58.6615 5.40273 57.8788 4.20048 56.8917 3.18803C55.9045 2.17558 54.7323 1.37284 53.4422 0.825782C52.1521 0.278727 50.7694 -0.00188897 49.3734 9.56948e-06ZM36.675 42.3077H31.4484C31.3604 42.3146 31.2727 42.2901 31.2001 42.2385C31.1275 42.1868 31.0745 42.1111 31.05 42.024L29.0016 35.899H19.6875L17.8125 41.9231C17.792 42.0322 17.7327 42.1295 17.646 42.1962C17.5593 42.2628 17.4516 42.294 17.3438 42.2836H12.6563C12.3844 42.2836 12.3094 42.1298 12.3844 41.8029L20.4 18.0529C20.475 17.7933 20.55 17.5144 20.6484 17.2067C20.7505 16.6569 20.8008 16.0982 20.7984 15.5385C20.7913 15.4739 20.8081 15.4089 20.8454 15.3564C20.8827 15.3039 20.9379 15.2676 21 15.2548H27.4734C27.675 15.2548 27.7734 15.3317 27.8016 15.4615L36.9234 41.8702C36.9984 42.1538 36.9234 42.2836 36.675 42.2836V42.3077ZM45.3 42.0192C45.3 42.3029 45.2016 42.4279 44.9766 42.4279H40.0734C40.0211 42.432 39.9686 42.424 39.9196 42.4045C39.8707 42.3851 39.8267 42.3547 39.7907 42.3155C39.7547 42.2763 39.7278 42.2293 39.7118 42.1781C39.6959 42.1268 39.6913 42.0725 39.6984 42.0192V22.2548C39.6984 22 39.8016 21.899 40.0266 21.899H45C45.225 21.899 45.3234 22.024 45.3234 22.2548L45.3 42.0192ZM44.775 18.8462C44.4802 19.1533 44.1249 19.3923 43.7329 19.5474C43.3408 19.7024 42.921 19.7698 42.5016 19.7452C42.0908 19.7542 41.6825 19.6794 41.3002 19.525C40.918 19.3707 40.5695 19.1399 40.275 18.8462C39.6996 18.2049 39.3947 17.3564 39.4266 16.4856C39.409 16.0631 39.4789 15.6416 39.6316 15.2489C39.7843 14.8561 40.0164 14.5009 40.3125 14.2067C40.9115 13.623 41.7081 13.3007 42.5344 13.3077C42.9543 13.2854 43.3742 13.354 43.7666 13.5088C44.1591 13.6637 44.5154 13.9015 44.8125 14.2067C45.365 14.828 45.6607 15.645 45.6375 16.4856C45.6543 16.9181 45.5866 17.3498 45.4385 17.7551C45.2904 18.1605 45.0648 18.5314 44.775 18.8462ZM27.5016 30.6923H21.15C21.525 29.6154 21.9 28.4087 22.2516 27.101C22.6031 25.7933 23.025 24.5385 23.4 23.3077C23.7418 22.2219 24.025 21.1177 24.2484 20H24.3C24.4734 20.6154 24.6516 21.2837 24.8484 22C25.0453 22.7163 25.275 23.4856 25.5234 24.2837C25.7719 25.0817 25.9922 25.8462 26.25 26.6394C26.5078 27.4327 26.7187 28.1538 26.925 28.8462C27.1312 29.5385 27.3516 30.1538 27.5016 30.6923Z" fill="#070F68"/>
</svg>
