<svg width="60" height="60" viewBox="0 0 60 60" fill="none" xmlns="http://www.w3.org/2000/svg">
<g clip-path="url(#clip0_108_61)">
<path d="M0 0H60V60H0V0ZM55.085 45.69C54.6475 42.9525 52.865 40.6525 47.5775 38.5075C45.7375 37.645 43.6925 37.045 43.085 35.6575C42.8575 34.8325 42.8225 34.3825 42.97 33.895C43.345 32.28 45.2575 31.795 46.7575 32.245C47.7325 32.545 48.6325 33.295 49.1975 34.495C51.7825 32.805 51.7825 32.805 53.585 31.6825C52.91 30.6325 52.575 30.18 52.12 29.7325C50.545 27.97 48.4475 27.07 45.035 27.1475L43.2725 27.37C41.5825 27.7825 39.9725 28.6825 38.9975 29.8825C36.1475 33.11 36.97 38.735 40.42 41.06C43.8325 43.61 48.8225 44.17 49.46 46.5725C50.06 49.4975 47.285 50.435 44.545 50.0975C42.5175 49.6475 41.395 48.6325 40.1575 46.7575L35.5825 49.385C36.1075 50.585 36.7075 51.1075 37.6075 52.1575C41.9575 56.5475 52.8325 56.3225 54.785 49.6475C54.8575 49.4225 55.385 47.885 54.97 45.5225L55.085 45.69ZM32.6275 27.5775H27.0075C27.0075 32.4225 26.985 37.2375 26.985 42.09C26.985 45.17 27.1425 47.9975 26.64 48.8675C25.815 50.59 23.69 50.37 22.725 50.0675C21.735 49.5775 21.2325 48.9025 20.65 47.93C20.4925 47.6675 20.375 47.44 20.3325 47.44L15.77 50.2525C16.5325 51.8275 17.645 53.1825 19.08 54.045C21.2175 55.32 24.09 55.7325 27.0975 55.0575C29.055 54.4925 30.7425 53.33 31.625 51.53C32.9 49.205 32.63 46.355 32.6175 43.165C32.6475 38.03 32.6175 32.8925 32.6175 27.7175L32.6275 27.5775Z" fill="#070F68"/>
</g>
<defs>
<clipPath id="clip0_108_61">
<rect width="60" height="60" fill="white"/>
</clipPath>
</defs>
</svg>
