<svg width="62" height="60" viewBox="0 0 62 60" fill="none" xmlns="http://www.w3.org/2000/svg">
<path d="M49.1068 21.8719V26.8721C49.1068 27.0772 48.9786 27.1532 48.6933 27.1532C48.5052 27.1409 48.2861 27.1347 48.0649 27.1347C46.5248 27.1347 45.0633 27.463 43.7444 28.0518L43.8105 28.0252C43.2669 28.2591 42.8038 28.5791 42.4172 28.9731V42.049C42.4172 42.3055 42.3139 42.4081 42.0824 42.4081H37.0445C37.0259 42.4122 37.0073 42.4122 36.9846 42.4122C36.8027 42.4122 36.6538 42.2788 36.6311 42.1044V27.7933C36.6311 27.1778 36.6311 26.5376 36.6063 25.8708C36.5815 25.204 36.5815 24.5372 36.5546 23.8703C36.5284 23.3068 36.4761 22.7425 36.3975 22.1776C36.3934 22.1612 36.3913 22.1448 36.3913 22.1263C36.3913 22.0135 36.4699 21.9191 36.5774 21.8965H36.5794C36.6042 21.8719 36.6311 21.8719 36.6828 21.8965H41.2038C41.4601 21.9027 41.673 22.0709 41.7454 22.3028L41.7475 22.3069C41.8488 22.4772 41.9211 22.6762 41.9521 22.8875V22.8957C42.0038 23.1522 42.0534 23.4333 42.0803 23.6898C42.1051 23.9709 42.134 24.2786 42.134 24.6131C42.903 23.7247 43.8168 22.9881 44.8442 22.432L44.8938 22.4074C45.9563 21.8247 47.2215 21.4821 48.5693 21.4821C48.6313 21.4821 48.6913 21.4821 48.7533 21.4841H48.745C48.7574 21.4821 48.7719 21.4821 48.7863 21.4821C48.9517 21.4821 49.0882 21.6052 49.1068 21.7652V21.8719ZM32.9618 42.0224C32.9535 42.1475 32.8956 42.2563 32.8067 42.3322C32.7385 42.3794 32.6538 42.406 32.5607 42.406C32.5545 42.406 32.5504 42.406 32.5442 42.406H16.1698C15.8866 42.406 15.7563 42.2501 15.7563 41.9444V15.7433C15.7543 15.7309 15.7543 15.7166 15.7543 15.7022C15.7543 15.5381 15.8783 15.4027 16.0395 15.3842H16.0416H21.2076C21.22 15.3821 21.2365 15.3801 21.251 15.3801C21.373 15.3801 21.4743 15.4704 21.4908 15.5873V15.5894V37.2027H33.4248C33.6853 37.2027 33.7639 37.3279 33.7081 37.5618L32.9618 42.0224ZM51.0189 0H10.979C10.9769 0 10.9728 0 10.9707 0C4.91171 0 0 4.87501 0 10.8888C0 10.8929 0 10.8949 0 10.899V49.103C0 49.1051 0 49.1092 0 49.1112C0 55.125 4.91171 60 10.9707 60C10.9749 60 10.9769 60 10.9811 60H51.021C51.0231 60 51.0272 60 51.0293 60C57.0883 60 62 55.125 62 49.1112C62 49.1071 62 49.1051 62 49.101V10.897C62 10.8949 62 10.8908 62 10.8888C62 4.87501 57.0883 0 51.0293 0C51.0251 0 51.0231 0 51.0189 0Z" fill="#070F68"/>
</svg>
