<svg width="35" height="35" viewBox="0 0 35 35" fill="none" xmlns="http://www.w3.org/2000/svg">
<g clip-path="url(#clip0_108_79)">
<path d="M31.7188 0.820439H3.28125C2.63602 0.813872 2.01454 1.06354 1.55318 1.51465C1.09181 1.96576 0.828245 2.58148 0.820312 3.22669V31.779C0.82968 32.4233 1.09388 33.0376 1.55509 33.4875C2.01629 33.9375 2.63696 34.1864 3.28125 34.1798H31.7188C32.364 34.1849 32.9851 33.9344 33.4462 33.483C33.9073 33.0316 34.171 32.4161 34.1797 31.7708V3.21849C34.1682 2.57517 33.9032 1.96239 33.4424 1.51335C32.9816 1.0643 32.3622 0.815292 31.7188 0.820439ZM10.7105 29.2579H5.75859V13.3247H10.7105V29.2579ZM8.24961 11.1536C7.68164 11.1542 7.12628 10.9863 6.65377 10.6711C6.18126 10.356 5.81284 9.90774 5.59512 9.38316C5.37739 8.85859 5.32014 8.28122 5.43062 7.7241C5.54109 7.16699 5.81432 6.65515 6.21574 6.25335C6.61716 5.85154 7.12873 5.57783 7.68575 5.46682C8.24276 5.35582 8.82018 5.41252 9.34496 5.62974C9.86975 5.84697 10.3183 6.21496 10.6339 6.68717C10.9495 7.15938 11.118 7.71458 11.118 8.28255C11.1173 8.66005 11.0421 9.0337 10.8968 9.38212C10.7515 9.73054 10.5389 10.0469 10.2712 10.3131C10.0036 10.5792 9.686 10.79 9.33675 10.9333C8.98751 11.0766 8.61343 11.1496 8.23594 11.1482L8.24961 11.1536ZM29.2578 29.2579H24.3059V21.506C24.3059 19.6603 24.273 17.2841 21.7328 17.2841C19.1926 17.2841 18.7605 19.2966 18.7605 21.3857V29.2579H13.8168V13.3247H18.5637V15.5122H18.6293C19.291 14.2599 20.9043 12.9392 23.3133 12.9392C28.3281 12.9283 29.2578 16.2286 29.2578 20.5079V29.2579Z" fill="white"/>
</g>
<defs>
<clipPath id="clip0_108_79">
<rect width="35" height="35" fill="white"/>
</clipPath>
</defs>
</svg>
