<svg width="35" height="35" viewBox="0 0 35 35" fill="none" xmlns="http://www.w3.org/2000/svg">
<path d="M2.1875 12.6436V25.1561C2.1875 26.3164 2.64844 27.4292 3.46891 28.2496C4.28938 29.0701 5.40218 29.5311 6.5625 29.5311H28.4375C29.5978 29.5311 30.7106 29.0701 31.5311 28.2496C32.3516 27.4292 32.8125 26.3164 32.8125 25.1561V12.6436L19.7925 20.6542C19.1031 21.0783 18.3095 21.3029 17.5 21.3029C16.6905 21.3029 15.8969 21.0783 15.2075 20.6542L2.1875 12.6436Z" fill="white"/>
<path d="M32.8125 10.0742V9.84375C32.8125 8.68343 32.3516 7.57063 31.5311 6.75016C30.7106 5.92969 29.5978 5.46875 28.4375 5.46875H6.5625C5.40218 5.46875 4.28938 5.92969 3.46891 6.75016C2.64844 7.57063 2.1875 8.68343 2.1875 9.84375V10.0742L16.3538 18.7921C16.6985 19.0042 17.0953 19.1164 17.5 19.1164C17.9047 19.1164 18.3015 19.0042 18.6463 18.7921L32.8125 10.0742Z" fill="white"/>
</svg>
