<svg width="60" height="60" viewBox="0 0 60 60" fill="none" xmlns="http://www.w3.org/2000/svg">
<g clip-path="url(#clip0_108_69)">
<path d="M23.5781 18.0469H20.1094V27.75H23.5781C25.9219 27.75 27.8438 25.8281 27.8438 23.4844V22.3594C27.8438 19.9688 25.9219 18.0469 23.5781 18.0469Z" fill="#070F68"/>
<path d="M0 0V60H60V0H0ZM24 31.6406H20.1094V41.625H15.6094V14.2031H24.2812C28.6875 14.1562 32.2969 17.6719 32.3438 22.0781V23.1562C32.3438 27.7969 28.5938 31.5938 24 31.6406ZM45.6094 24.9844C45.6094 24.9844 42.3281 24.9844 40.875 25.5938V41.625H36.1406V22.9219C36.1406 22.9219 40.9219 20.5312 45.6094 21.1406V24.9844Z" fill="#070F68"/>
</g>
<defs>
<clipPath id="clip0_108_69">
<rect width="60" height="60" rx="10" fill="white"/>
</clipPath>
</defs>
</svg>
