<svg width="60" height="60" viewBox="0 0 60 60" fill="none" xmlns="http://www.w3.org/2000/svg">
<g clip-path="url(#clip0_108_63)">
<path d="M30.002 12C22.002 12 17.002 16 15.002 24C18.002 20 21.502 18.5 25.502 19.5C27.7845 20.07 29.4145 21.725 31.222 23.56C34.1645 26.545 37.567 30 45.002 30C53.002 30 58.002 26 60.002 18C57.002 22 53.502 23.5 49.502 22.5C47.2195 21.93 45.5895 20.275 43.782 18.44C40.842 15.455 37.4395 12 30.002 12ZM15.002 30C7.00195 30 2.00195 34 0.00195312 42C3.00195 38 6.50195 36.5 10.502 37.5C12.7845 38.07 14.4145 39.725 16.222 41.56C19.1645 44.545 22.567 48 30.002 48C38.002 48 43.002 44 45.002 36C42.002 40 38.502 41.5 34.502 40.5C32.2195 39.93 30.5895 38.275 28.782 36.44C25.842 33.455 22.4395 30 15.002 30Z" fill="#070F68"/>
</g>
<defs>
<clipPath id="clip0_108_63">
<rect width="60" height="60" fill="white"/>
</clipPath>
</defs>
</svg>
