<svg width="35" height="35" viewBox="0 0 35 35" fill="none" xmlns="http://www.w3.org/2000/svg">
<path fill-rule="evenodd" clip-rule="evenodd" d="M2.1875 6.5625C2.1875 5.40218 2.64844 4.28938 3.46891 3.46891C4.28938 2.64844 5.40218 2.1875 6.5625 2.1875H8.56333C9.8175 2.1875 10.9113 3.04208 11.216 4.25833L12.8275 10.7085C12.9581 11.2306 12.9317 11.7796 12.7517 12.2868C12.5716 12.7939 12.246 13.2367 11.8154 13.5596L9.92979 14.9742C9.73292 15.1215 9.69063 15.3373 9.74604 15.4875C10.5691 17.7258 11.8688 19.7585 13.5551 21.4449C15.2415 23.1312 17.2742 24.4309 19.5125 25.254C19.6627 25.3094 19.8771 25.2671 20.0258 25.0702L21.4404 23.1846C21.7633 22.754 22.2061 22.4284 22.7132 22.2483C23.2204 22.0683 23.7694 22.0419 24.2915 22.1725L30.7417 23.784C31.9579 24.0888 32.8125 25.1825 32.8125 26.4381V28.4375C32.8125 29.5978 32.3516 30.7106 31.5311 31.5311C30.7106 32.3516 29.5978 32.8125 28.4375 32.8125H25.1563C12.4717 32.8125 2.1875 22.5283 2.1875 9.84375V6.5625Z" fill="white"/>
</svg>
