<svg width="60" height="60" viewBox="0 0 60 60" fill="none" xmlns="http://www.w3.org/2000/svg">
<path d="M44.1305 0C44.0421 0.00817307 43.9541 0.0194969 43.8666 0.0339502C43.7214 0.0297198 43.5762 0.0339707 43.4316 0.0466816C43.2762 0.0707341 43.1224 0.104594 42.9712 0.148061C42.8845 0.156344 42.798 0.167667 42.712 0.182011C42.5803 0.235447 42.4516 0.296373 42.3267 0.364493C42.2496 0.397911 42.1736 0.433925 42.0989 0.472474C41.7884 0.638563 41.5026 0.847772 41.25 1.09395L21.3216 23.2587L9.68719 13.6678L8.66906 12.7884C8.54669 12.7042 8.41712 12.6311 8.28187 12.5701C8.20105 12.5181 8.11732 12.4709 8.03109 12.4286C7.93895 12.3872 7.8444 12.3515 7.74797 12.3216C7.64889 12.2917 7.54808 12.2681 7.44609 12.2508C7.36751 12.2444 7.28868 12.2417 7.20984 12.2428C7.13076 12.2273 7.05098 12.2157 6.97078 12.2079C6.92899 12.2163 6.88741 12.2257 6.84609 12.2362C6.81267 12.2351 6.77922 12.2346 6.74578 12.2348C6.71011 12.2435 6.67463 12.2529 6.63937 12.2631C6.56375 12.2606 6.48804 12.2615 6.4125 12.2659C6.29824 12.2913 6.1871 12.3293 6.08109 12.3791L1.53703 14.2968C1.28505 14.4071 1.05287 14.5585 0.849844 14.7448C0.815533 14.7717 0.781928 14.7995 0.749063 14.8282C0.711365 14.8759 0.675403 14.925 0.64125 14.9753C0.527447 15.103 0.426924 15.2421 0.34125 15.3903C0.29575 15.4629 0.253977 15.5378 0.216094 15.6147C0.200868 15.6576 0.1868 15.7008 0.173906 15.7444C0.125236 15.8836 0.088846 16.0269 0.0651562 16.1726C0.0394091 16.2525 0.017663 16.3337 0 16.4159L0 43.6138C0.0177236 43.6953 0.0394692 43.7759 0.0651562 43.8552C0.0886843 44.0018 0.125076 44.146 0.173906 44.2862C0.186832 44.3291 0.2009 44.3717 0.216094 44.414C0.254115 44.491 0.296046 44.5661 0.341719 44.6389C0.427124 44.7869 0.527331 44.9258 0.640781 45.0534C0.674935 45.1037 0.710896 45.1528 0.748594 45.2005C0.781608 45.2293 0.81537 45.2573 0.849844 45.2844C1.05291 45.4705 1.28508 45.6217 1.53703 45.7319L6.08109 47.6491C6.3378 47.7516 6.6096 47.8105 6.88547 47.8236C6.96519 47.8259 7.04496 47.8243 7.12453 47.8189C7.3263 47.8121 7.52651 47.7807 7.72078 47.7255C7.80162 47.7053 7.88141 47.6811 7.95984 47.6529C8.21714 47.5558 8.45675 47.4168 8.66906 47.2413L9.68719 46.3609L21.3216 36.77L41.25 58.9347C41.5135 59.1958 41.8139 59.4162 42.1416 59.5888C42.2344 59.6287 42.3289 59.6649 42.4247 59.6972C42.4256 59.6975 42.4266 59.6978 42.4275 59.6982C42.6295 59.7981 42.84 59.8795 43.0566 59.9415C43.0943 59.9441 43.1322 59.9461 43.17 59.9476C43.4115 59.9853 43.6561 59.9992 43.9003 59.9891C44.0547 60.0009 44.2097 60.0031 44.3644 59.9957C44.7623 59.9476 45.1501 59.8357 45.5128 59.6642L57.8752 53.6852C57.9664 53.6408 58.0559 53.5926 58.1433 53.5409C58.1701 53.5246 58.1966 53.5079 58.223 53.4909C58.2839 53.4534 58.3438 53.4141 58.4025 53.373C58.4311 53.3522 58.4594 53.331 58.4873 53.3094C58.54 53.2702 58.5915 53.2296 58.642 53.1877C58.6744 53.1611 58.7062 53.1339 58.7377 53.1062C58.7819 53.0663 58.8252 53.0255 58.8675 52.9836C58.8977 52.9542 58.9274 52.9243 58.9566 52.894C59.0021 52.8458 59.0463 52.7964 59.0892 52.7459C59.1121 52.7201 59.1346 52.694 59.1567 52.6676C59.1998 52.6135 59.2414 52.5581 59.2814 52.5017C59.304 52.4717 59.3262 52.4413 59.348 52.4106C59.4027 52.3294 59.4543 52.246 59.5027 52.1607C59.517 52.1342 59.5311 52.1075 59.5448 52.0806C59.5777 52.0208 59.609 51.9601 59.6386 51.8986C59.6569 51.8586 59.6746 51.8184 59.6916 51.7779C59.7168 51.7189 59.7406 51.6593 59.7628 51.5991C59.7752 51.5655 59.787 51.5317 59.7984 51.4978C59.8179 51.4405 59.8361 51.3828 59.8528 51.3247C59.8666 51.2772 59.8794 51.2294 59.8912 51.1814C59.9037 51.1279 59.9149 51.0741 59.925 51.0201C59.934 50.9772 59.9423 50.9341 59.9498 50.8909C59.9604 50.8234 59.9692 50.7556 59.9761 50.6877C59.9798 50.6594 59.9833 50.6311 59.9864 50.6028C59.9867 50.5992 59.987 50.5956 59.9873 50.592C59.9957 50.4895 60 50.3868 60 50.284V9.75079C60 9.74906 60 9.74733 60 9.7456C60 9.64252 59.9958 9.53948 59.9873 9.43675C59.9848 9.41188 59.982 9.38705 59.9789 9.36224C59.9711 9.28209 59.9608 9.2022 59.948 9.12271C59.9429 9.09593 59.9376 9.06921 59.932 9.04255C59.9192 8.97251 59.9043 8.90285 59.8875 8.83366C59.8768 8.79134 59.8654 8.74921 59.8533 8.70729C59.8383 8.65508 59.8222 8.60319 59.805 8.55168C59.79 8.50501 59.774 8.45863 59.7572 8.41258C59.7363 8.35784 59.7141 8.3036 59.6906 8.2499C59.6756 8.21303 59.6599 8.17641 59.6437 8.14004C59.6129 8.07562 59.5802 8.01209 59.5458 7.94954C59.5301 7.91867 59.514 7.88801 59.4975 7.85759C59.4489 7.7726 59.3969 7.68954 59.3419 7.60862C59.3256 7.58643 59.309 7.56443 59.2922 7.54261C59.2506 7.48321 59.2073 7.42503 59.1623 7.36814C59.1336 7.33366 59.1042 7.29971 59.0742 7.26629C59.0368 7.22234 58.9983 7.17926 58.9589 7.13709C58.9293 7.10624 58.8991 7.0759 58.8684 7.04609C58.8257 7.00386 58.7819 6.96266 58.7372 6.92254C58.7061 6.89467 58.6745 6.86732 58.6425 6.8405C58.592 6.79875 58.5404 6.75835 58.4878 6.71931C58.4597 6.69769 58.4312 6.67647 58.4025 6.65566C58.3438 6.61465 58.2839 6.57534 58.223 6.53777C58.1966 6.52078 58.1701 6.50412 58.1433 6.48779C58.0559 6.43607 57.9664 6.38793 57.8752 6.3435L45.5128 0.364022C45.1657 0.197335 44.7951 0.0853724 44.4141 0.0320641C44.3606 0.0312293 44.3072 0.0315437 44.2537 0.0330072C44.2128 0.0213024 44.1717 0.0102984 44.1305 0ZM45 17.2392V42.7895L29.5064 30.0148L45 17.2392ZM7.5 21.3981L15.247 30.0148L7.5 38.6311V21.399V21.3981Z" fill="#070F68"/>
</svg>
